<svg id="visual" viewBox="0 0 960 300" width="960" height="300" xmlns="http://www.w3.org/2000/svg" xmlns:xlink="http://www.w3.org/1999/xlink" version="1.1"><rect x="0" y="0" width="960" height="300" fill="#001220"></rect><path d="M0 102L22.8 98.5C45.7 95 91.3 88 137 84C182.7 80 228.3 79 274 80.8C319.7 82.7 365.3 87.3 411.2 94.7C457 102 503 112 548.8 110.3C594.7 108.7 640.3 95.3 686 88.8C731.7 82.3 777.3 82.7 823 82.5C868.7 82.3 914.3 81.7 937.2 81.3L960 81L960 0L937.2 0C914.3 0 868.7 0 823 0C777.3 0 731.7 0 686 0C640.3 0 594.7 0 548.8 0C503 0 457 0 411.2 0C365.3 0 319.7 0 274 0C228.3 0 182.7 0 137 0C91.3 0 45.7 0 22.8 0L0 0Z" fill="#fa7268"></path><path d="M0 59L22.8 63.5C45.7 68 91.3 77 137 78.7C182.7 80.3 228.3 74.7 274 73.3C319.7 72 365.3 75 411.2 78.8C457 82.7 503 87.3 548.8 86.7C594.7 86 640.3 80 686 80.8C731.7 81.7 777.3 89.3 823 86.7C868.7 84 914.3 71 937.2 64.5L960 58L960 0L937.2 0C914.3 0 868.7 0 823 0C777.3 0 731.7 0 686 0C640.3 0 594.7 0 548.8 0C503 0 457 0 411.2 0C365.3 0 319.7 0 274 0C228.3 0 182.7 0 137 0C91.3 0 45.7 0 22.8 0L0 0Z" fill="#ef5f67"></path><path d="M0 50L22.8 52.8C45.7 55.7 91.3 61.3 137 63.8C182.7 66.3 228.3 65.7 274 63.3C319.7 61 365.3 57 411.2 54.8C457 52.7 503 52.3 548.8 56.7C594.7 61 640.3 70 686 71.3C731.7 72.7 777.3 66.3 823 66.2C868.7 66 914.3 72 937.2 75L960 78L960 0L937.2 0C914.3 0 868.7 0 823 0C777.3 0 731.7 0 686 0C640.3 0 594.7 0 548.8 0C503 0 457 0 411.2 0C365.3 0 319.7 0 274 0C228.3 0 182.7 0 137 0C91.3 0 45.7 0 22.8 0L0 0Z" fill="#e34c67"></path><path d="M0 43L22.8 40.7C45.7 38.3 91.3 33.7 137 31.2C182.7 28.7 228.3 28.3 274 31.2C319.7 34 365.3 40 411.2 41.5C457 43 503 40 548.8 37.8C594.7 35.7 640.3 34.3 686 34C731.7 33.7 777.3 34.3 823 36C868.7 37.7 914.3 40.3 937.2 41.7L960 43L960 0L937.2 0C914.3 0 868.7 0 823 0C777.3 0 731.7 0 686 0C640.3 0 594.7 0 548.8 0C503 0 457 0 411.2 0C365.3 0 319.7 0 274 0C228.3 0 182.7 0 137 0C91.3 0 45.7 0 22.8 0L0 0Z" fill="#d53867"></path><path d="M0 13L22.8 15.3C45.7 17.7 91.3 22.3 137 23.3C182.7 24.3 228.3 21.7 274 22.8C319.7 24 365.3 29 411.2 28.2C457 27.3 503 20.7 548.8 18C594.7 15.3 640.3 16.7 686 18.7C731.7 20.7 777.3 23.3 823 23.2C868.7 23 914.3 20 937.2 18.5L960 17L960 0L937.2 0C914.3 0 868.7 0 823 0C777.3 0 731.7 0 686 0C640.3 0 594.7 0 548.8 0C503 0 457 0 411.2 0C365.3 0 319.7 0 274 0C228.3 0 182.7 0 137 0C91.3 0 45.7 0 22.8 0L0 0Z" fill="#c62368"></path></svg>