<svg id="visual" viewBox="0 0 960 300" width="960" height="300" xmlns="http://www.w3.org/2000/svg" xmlns:xlink="http://www.w3.org/1999/xlink" version="1.1"><rect x="0" y="0" width="960" height="300" fill="#001220"></rect><path d="M0 199L22.8 199.2C45.7 199.3 91.3 199.7 137 195.5C182.7 191.3 228.3 182.7 274 186C319.7 189.3 365.3 204.7 411.2 207.7C457 210.7 503 201.3 548.8 194.7C594.7 188 640.3 184 686 189.2C731.7 194.3 777.3 208.7 823 210.7C868.7 212.7 914.3 202.3 937.2 197.2L960 192L960 301L937.2 301C914.3 301 868.7 301 823 301C777.3 301 731.7 301 686 301C640.3 301 594.7 301 548.8 301C503 301 457 301 411.2 301C365.3 301 319.7 301 274 301C228.3 301 182.7 301 137 301C91.3 301 45.7 301 22.8 301L0 301Z" fill="#fa7268"></path><path d="M0 234L22.8 231.5C45.7 229 91.3 224 137 218.7C182.7 213.3 228.3 207.7 274 204.8C319.7 202 365.3 202 411.2 201.8C457 201.7 503 201.3 548.8 207.5C594.7 213.7 640.3 226.3 686 232.2C731.7 238 777.3 237 823 231.5C868.7 226 914.3 216 937.2 211L960 206L960 301L937.2 301C914.3 301 868.7 301 823 301C777.3 301 731.7 301 686 301C640.3 301 594.7 301 548.8 301C503 301 457 301 411.2 301C365.3 301 319.7 301 274 301C228.3 301 182.7 301 137 301C91.3 301 45.7 301 22.8 301L0 301Z" fill="#ef5f67"></path><path d="M0 230L22.8 230.7C45.7 231.3 91.3 232.7 137 236.8C182.7 241 228.3 248 274 250.7C319.7 253.3 365.3 251.7 411.2 250.7C457 249.7 503 249.3 548.8 245.5C594.7 241.7 640.3 234.3 686 235.3C731.7 236.3 777.3 245.7 823 245.8C868.7 246 914.3 237 937.2 232.5L960 228L960 301L937.2 301C914.3 301 868.7 301 823 301C777.3 301 731.7 301 686 301C640.3 301 594.7 301 548.8 301C503 301 457 301 411.2 301C365.3 301 319.7 301 274 301C228.3 301 182.7 301 137 301C91.3 301 45.7 301 22.8 301L0 301Z" fill="#e34c67"></path><path d="M0 241L22.8 242C45.7 243 91.3 245 137 245.3C182.7 245.7 228.3 244.3 274 246.8C319.7 249.3 365.3 255.7 411.2 259.3C457 263 503 264 548.8 262.2C594.7 260.3 640.3 255.7 686 253.7C731.7 251.7 777.3 252.3 823 254.5C868.7 256.7 914.3 260.3 937.2 262.2L960 264L960 301L937.2 301C914.3 301 868.7 301 823 301C777.3 301 731.7 301 686 301C640.3 301 594.7 301 548.8 301C503 301 457 301 411.2 301C365.3 301 319.7 301 274 301C228.3 301 182.7 301 137 301C91.3 301 45.7 301 22.8 301L0 301Z" fill="#d53867"></path><path d="M0 263L22.8 263C45.7 263 91.3 263 137 266.5C182.7 270 228.3 277 274 279C319.7 281 365.3 278 411.2 278.3C457 278.7 503 282.3 548.8 283.7C594.7 285 640.3 284 686 284C731.7 284 777.3 285 823 282C868.7 279 914.3 272 937.2 268.5L960 265L960 301L937.2 301C914.3 301 868.7 301 823 301C777.3 301 731.7 301 686 301C640.3 301 594.7 301 548.8 301C503 301 457 301 411.2 301C365.3 301 319.7 301 274 301C228.3 301 182.7 301 137 301C91.3 301 45.7 301 22.8 301L0 301Z" fill="#c62368"></path></svg>